<svg xmlns="http://www.w3.org/2000/svg" viewBox="0 0 841.89 595.28"><defs><style>.cls-1{fill:#f80505;}.cls-2{fill:#090326;}</style></defs><g id="Capa_1" data-name="Capa 1"><path class="cls-1" d="M392.52,229.71v11.43h-83a30.77,30.77,0,0,0-30.76,30.79v43.73a37.93,37.93,0,0,1-37.91,37.94h0A37.93,37.93,0,0,1,203,315.66v-86a64.42,64.42,0,0,1,64.38-64.46h60.78A64.43,64.43,0,0,1,392.52,229.71Z"/><path class="cls-1" d="M429.93,115.92v11.43H203V115.92c0-35.58,28.44-64.39,63.5-64.39h100C401.5,51.53,429.93,80.34,429.93,115.92Z"/><path class="cls-2" d="M656.89,202c0,78-58.82,143.37-134.87,150.88,0,0-8.34.76-12.54.76H468.54A37.79,37.79,0,0,1,442,342.79H409.36a3.36,3.36,0,0,1,0-6.68h71.17A26.92,26.92,0,0,0,485,329.8H412.79a2.24,2.24,0,0,1,0-4.45h74a29.69,29.69,0,0,0,1.33-6.32H423.78a3.36,3.36,0,0,1,0-6.68h64.36a29.47,29.47,0,0,0-1.33-6.31h-74a2.24,2.24,0,0,1,0-4.45H485a26.77,26.77,0,0,0-4.43-6.32H409.36a3.36,3.36,0,0,1,0-6.68H442a37.83,37.83,0,0,1,26.5-10.81H505c42.18,0,77.49-34.5,76.69-76.66a75.22,75.22,0,0,0-75.2-73.78,37.91,37.91,0,0,1,0-75.82A150.43,150.43,0,0,1,656.89,202Z"/><path class="cls-2" d="M392.54,534.11a9.62,9.62,0,0,1-7,9.28,9.49,9.49,0,0,1-11.66-6.82l-19.26-74-19.27,74a9.47,9.47,0,0,1-18.66-2.44,9.35,9.35,0,0,1,.31-2.45L340,443.17a19.71,19.71,0,0,1,6.78-10.47l.07-.05a12.71,12.71,0,0,1,15.41,0l.07.05a19.36,19.36,0,0,1,6.81,10.47l23.05,88.51A10.12,10.12,0,0,1,392.54,534.11Z"/><path class="cls-2" d="M603.4,486.84A16.55,16.55,0,0,0,620,470.29V458.45a28.37,28.37,0,0,0-28.39-28.38h-38a9.44,9.44,0,0,0-9.46,9.45v94.73a9.45,9.45,0,0,0,9.46,9.46h9.5v0h18.95v0h9.52A28.38,28.38,0,0,0,620,515.32V503.51a16.57,16.57,0,0,0-16.57-16.58l-1.83,0ZM563.11,449H586.8a14.21,14.21,0,1,1,0,28.41H563.11Zm23.69,75.77H563.11V496.34H586.8a14.21,14.21,0,1,1,0,28.41Z"/><rect class="cls-2" x="506.25" y="430.02" width="18.95" height="113.73" rx="2.75" transform="translate(1031.46 973.77) rotate(180)"/><path class="cls-2" d="M297.74,534.27h0a9.48,9.48,0,0,1-9.48,9.48H231.38a9.45,9.45,0,0,1-9.46-9.46V439.5A9.47,9.47,0,0,1,231.4,430h0a9.47,9.47,0,0,1,9.47,9.48v85.3h47.39A9.48,9.48,0,0,1,297.74,534.27Z"/><path class="cls-2" d="M146.1,449v28.43h21.56a9.47,9.47,0,0,1,9.47,9.48h0a9.47,9.47,0,0,1-9.47,9.47H146.1V524.8h47.39a9.47,9.47,0,0,1,9.47,9.47h0a9.47,9.47,0,0,1-9.47,9.48H136.6a9.46,9.46,0,0,1-9.46-9.46V439.48A9.47,9.47,0,0,1,136.6,430h56.89A9.47,9.47,0,0,1,203,439.5h0a9.48,9.48,0,0,1-9.47,9.48Z"/><path class="cls-2" d="M657.89,449v28.43h21.56a9.48,9.48,0,0,1,9.48,9.48h0a9.48,9.48,0,0,1-9.48,9.47H657.89V524.8h47.39a9.48,9.48,0,0,1,9.48,9.47h0a9.48,9.48,0,0,1-9.48,9.48H648.4a9.45,9.45,0,0,1-9.46-9.46V439.48A9.46,9.46,0,0,1,648.4,430h56.88a9.48,9.48,0,0,1,9.48,9.48h0a9.49,9.49,0,0,1-9.48,9.48Z"/><path class="cls-2" d="M487.25,440.14a9.78,9.78,0,0,1-9.89,8.84H430.43v28.43h21.14a9.75,9.75,0,0,1,9.85,8.53A9.48,9.48,0,0,1,452,496.36H430.43v37.91a9.47,9.47,0,0,1-9.47,9.48h0a9.47,9.47,0,0,1-9.48-9.48V439.48a9.45,9.45,0,0,1,9.45-9.46h56.89a9.45,9.45,0,0,1,9.43,10.12Z"/><path class="cls-2" d="M32.37,439.48v94.81a9.45,9.45,0,0,0,9.46,9.46h9.49a56.87,56.87,0,0,0,56.87-56.86h0A56.87,56.87,0,0,0,51.32,430H41.83A9.46,9.46,0,0,0,32.37,439.48Zm19,9.5h0a37.8,37.8,0,0,1,37.91,37v1.81a37.81,37.81,0,0,1-37.91,37h0Z"/><path class="cls-2" d="M809.52,469V458.45c0-.49,0-1,0-1.46a28.37,28.37,0,0,0-28.35-26.92h-38a9.44,9.44,0,0,0-9.46,9.45v94.69a9.48,9.48,0,0,0,19,0V497.37h16.61l13.24,39.84a9.47,9.47,0,0,0,18-6L788.87,496.3A28.4,28.4,0,0,0,809.52,469Zm-27.34,7.12a13.9,13.9,0,0,1-5.83,1.26H752.66V449h23.69a14.2,14.2,0,0,1,5.83,27.15Z"/></g></svg>