<?xml version="1.0" encoding="UTF-8"?>
<svg id="Capa_2" xmlns="http://www.w3.org/2000/svg" viewBox="0 0 355.94 68.56">
  <defs>
    <style>
      .cls-1 {
        fill: #32005a;
      }
    </style>
  </defs>
  <g id="Capa_1-2" data-name="Capa_1">
    <g>
      <path class="cls-1" d="M74.47,43.36c-9.14,13.68-19.83,21.21-30.04,23.78-6.45,1.64-16.51,1.42-19.48-2.57-5.05-6.81,1.57-30.67,2.31-32.78,1.23-3.27,8.47-4.62,11.49-4.47,2.09.1,9.85-.17,4.63,7.63-5.88,8.8-7.54,14.97-6.2,17.36,1.41,2.51,7.55,2.34,13.61-2.03,4.19-3.03,8.39-8.21,11.14-16.32,6.85-20.21-13.41-13.85-38.38-13.77-12.34.04-18.09-4.84-20.77-9.79C.06,5.33,0,0,0,0c5.45,4.17,11.69,6.15,18.53,6.9,5.45.6,11.64.54,19.04.51,5.08-.03,10.77-.39,17.13.18,27.2,2.46,32.75,16.34,19.77,35.76Z"/>
      <g>
        <path class="cls-1" d="M116.99,27.33c-2.75-1.83-6.21-2.75-10.37-2.75s-8.23.96-11.85,2.87c-3.62,1.92-6.65,4.55-9.09,7.91-2.44,3.36-4.08,7.23-4.94,11.62-.84,4.28-.67,8.04.49,11.29,1.17,3.25,3.2,5.78,6.09,7.58,2.89,1.8,6.45,2.71,10.67,2.71,3.28,0,6.37-.61,9.27-1.83,2.91-1.22,5.48-2.89,7.73-5,1.53-1.44,2.84-2.99,3.92-4.66.68-1.04-.09-2.42-1.33-2.42h-7.99c-.48,0-.94.22-1.24.61-.87,1.12-1.96,2.05-3.27,2.81-1.54.89-3.33,1.33-5.38,1.33s-3.77-.46-5.14-1.37c-1.38-.92-2.33-2.22-2.86-3.91-.31-.99-.45-2.08-.42-3.27.02-.85.73-1.52,1.58-1.52h28.32c.72,0,1.34-.49,1.53-1.19.08-.32.16-.63.22-.94l.37-1.87c.77-3.94.6-7.47-.51-10.58-1.11-3.11-3.04-5.58-5.79-7.41ZM95.4,42.49c-1.21,0-1.97-1.3-1.37-2.35.23-.4.47-.78.73-1.15,1.26-1.78,2.79-3.09,4.57-3.96,1.78-.86,3.61-1.29,5.5-1.29,2.61,0,4.64.78,6.08,2.33,1.15,1.24,1.72,2.84,1.73,4.82,0,.88-.7,1.6-1.58,1.6h-15.65Z"/>
        <path class="cls-1" d="M123.92,68.56h8.03c.75,0,1.4-.53,1.55-1.27l9.3-47.46c1.22-6.21-2.83-11.25-9.04-11.25h0l-11.39,58.09c-.19.97.55,1.88,1.55,1.88Z"/>
        <path class="cls-1" d="M175.32,26.58c-2.63-1.33-5.91-2-9.85-2-3.44,0-6.69.61-9.73,1.83-3.04,1.22-5.63,2.93-7.75,5.12-1.59,1.64-2.83,3.51-3.71,5.6-.44,1.04.33,2.19,1.45,2.19h7.65c.59,0,1.14-.33,1.4-.86.72-1.46,1.77-2.57,3.16-3.34,1.65-.92,3.53-1.37,5.64-1.37,1.94,0,3.43.33,4.47,1s1.7,1.68,1.99,3.04c.22,1.05.24,2.3.05,3.76-.1.78-.77,1.37-1.56,1.37h-9.07c-4,0-7.43.56-10.28,1.67-2.86,1.11-5.13,2.64-6.81,4.58-1.69,1.94-2.78,4.19-3.28,6.75-.46,2.33-.33,4.46.38,6.37.71,1.92,2.09,3.44,4.14,4.58,2.05,1.14,4.83,1.71,8.33,1.71,1.67,0,3.23-.18,4.69-.54,1.46-.36,2.81-.87,4.05-1.54,1.24-.67,2.36-1.44,3.37-2.33.01,0,.02-.02.03-.03,1.03-.91,2.65-.18,2.61,1.19l-.04,1.63c-.02.89.69,1.62,1.57,1.62h6.58c.75,0,1.4-.53,1.55-1.27l5.04-25.72c.72-3.66.54-6.75-.52-9.25-1.07-2.5-2.91-4.41-5.54-5.75ZM168,49.9c-.44,1.39-1.01,2.68-1.72,3.87-.71,1.2-1.57,2.25-2.58,3.17-1.01.92-2.14,1.64-3.38,2.17-1.24.53-2.58.79-4.03.79-1.22,0-2.27-.19-3.13-.58-.87-.39-1.48-.94-1.84-1.67-.36-.72-.43-1.64-.21-2.75.2-1,.62-1.89,1.27-2.67.65-.78,1.56-1.37,2.73-1.79s2.61-.63,4.33-.63h8.58l-.02.08Z"/>
        <path class="cls-1" d="M205.51,22.75c.33-1.67.95-2.85,1.86-3.54.91-.69,2.23-1.04,3.95-1.04h1.62c.75,0,1.4-.53,1.55-1.27l1.26-6.43c.19-.97-.55-1.88-1.55-1.88h-2.67c-2.94,0-5.6.47-7.98,1.42-2.38.95-4.35,2.44-5.92,4.5-1.57,2.05-2.7,4.83-3.38,8.33l-.49,2.48c-.14.74-.79,1.27-1.55,1.27h-3.15c-.75,0-1.4.53-1.55,1.27l-1.23,6.26c-.19.97.55,1.88,1.55,1.88h1.92c.99,0,1.74.91,1.55,1.88l-5.65,28.81c-.19.97.55,1.88,1.55,1.88h8.03c.75,0,1.4-.53,1.55-1.27l5.89-30.02c.14-.74.79-1.27,1.55-1.27h11.95c.99,0,1.74.91,1.55,1.88l-5.65,28.81c-.19.97.55,1.88,1.55,1.88h8.03c.75,0,1.4-.53,1.55-1.27l7.61-38.83c.19-.97-.55-1.88-1.55-1.88h-22.58c-.99,0-1.74-.91-1.55-1.88l.38-1.95Z"/>
        <path class="cls-1" d="M270.6,27.45c-2.65-1.92-5.92-2.87-9.81-2.87-3.28,0-6.14.65-8.59,1.96-1.02.54-1.98,1.14-2.87,1.8-1.15.84-2.73-.19-2.46-1.59l1.55-7.91c1.22-6.21-2.83-11.25-9.04-11.25h0l-11.58,59.09c-.19.97.55,1.88,1.55,1.88h7.01c.65,0,1.23-.4,1.47-1l1.05-2.69c.42-1.08,1.85-1.36,2.62-.49.33.37.69.73,1.09,1.07,1.11.97,2.46,1.74,4.05,2.29,1.58.55,3.46.83,5.63.83,3.89,0,7.52-.95,10.88-2.83,3.37-1.89,6.25-4.5,8.66-7.83,2.4-3.33,4.01-7.08,4.83-11.24.84-4.28.71-8.07-.39-11.37-1.1-3.3-2.98-5.91-5.63-7.83ZM262.48,52.94c-1.3,1.81-2.89,3.22-4.79,4.25-1.9,1.03-3.95,1.54-6.17,1.54s-4-.5-5.5-1.5c-1.5-1-2.55-2.43-3.16-4.29-.61-1.86-.68-3.98-.21-6.37.47-2.39,1.37-4.5,2.7-6.33,1.33-1.83,2.94-3.26,4.84-4.29,1.89-1.03,3.93-1.54,6.09-1.54s4.08.51,5.57,1.54c1.49,1.03,2.53,2.47,3.11,4.33.58,1.86.63,3.99.17,6.37-.47,2.39-1.35,4.48-2.65,6.29Z"/>
        <path class="cls-1" d="M316.15,27.33c-2.75-1.83-6.21-2.75-10.37-2.75s-8.23.96-11.85,2.87c-3.62,1.92-6.65,4.55-9.09,7.91-2.44,3.36-4.08,7.23-4.94,11.62-.84,4.28-.67,8.04.49,11.29,1.17,3.25,3.2,5.78,6.09,7.58s6.45,2.71,10.67,2.71c3.28,0,6.37-.61,9.27-1.83,2.91-1.22,5.48-2.89,7.73-5,1.53-1.44,2.84-2.99,3.92-4.66.68-1.04-.09-2.42-1.33-2.42h-7.99c-.48,0-.94.22-1.24.61-.87,1.12-1.96,2.05-3.27,2.81-1.54.89-3.33,1.33-5.38,1.33s-3.77-.46-5.14-1.37c-1.38-.92-2.33-2.22-2.86-3.91-.31-.99-.45-2.08-.42-3.27.02-.85.73-1.52,1.58-1.52h28.32c.72,0,1.34-.49,1.53-1.19.08-.32.16-.63.22-.94l.37-1.87c.77-3.94.6-7.47-.51-10.58-1.11-3.11-3.04-5.58-5.79-7.41ZM294.56,42.49c-1.21,0-1.97-1.3-1.37-2.35.23-.4.47-.78.73-1.15,1.26-1.78,2.79-3.09,4.57-3.96,1.78-.86,3.61-1.29,5.5-1.29,2.61,0,4.64.78,6.08,2.33,1.15,1.24,1.72,2.84,1.73,4.82,0,.88-.7,1.6-1.58,1.6h-15.65Z"/>
        <path class="cls-1" d="M346.51,26.9c-3.04.98-5.2,2.47-6.66,3.8-.92.84-2.38.33-2.61-.89-.68-3.52-3.03-5.79-7.3-5.79h0l-8.36,42.65c-.19.97.55,1.88,1.55,1.88h8.03c.75,0,1.4-.53,1.55-1.27l3.56-18.14c.45-2.28,1.09-4.16,1.94-5.66.85-1.5,1.89-2.68,3.11-3.54,1.22-.86,2.58-1.48,4.07-1.87,1.49-.39,3.07-.58,4.74-.58h2.54c.75,0,1.4-.53,1.55-1.27l1.7-8.67c.2-1.02-.63-1.96-1.67-1.87-2.61.2-6.1.71-7.73,1.23Z"/>
        <path class="cls-1" d="M234.18,17.86c-.73,3.71-4.32,6.72-8.03,6.72s-6.13-3.01-5.4-6.72c.73-3.71,4.32-6.72,8.03-6.72s6.13,3.01,5.4,6.72Z"/>
      </g>
    </g>
  </g>
</svg>